# xmcd
#
# Track frame offsets:
#	150
#	20327
#	35167
#	63131
#	87597
#	109212
#	126366
#	151090
#	166829
#	180253
#
# Disc length: 2507 seconds
#
# Revision: 0
# Processed by: cddbd v1.5.2PL0 Copyright (c) Steve Scherf et al.
# Submitted via: audiograbber 1.82.02
#
DISCID=7709c90a
DTITLE=The Cool Waters Band - A Rose Petal To The Metal
DYEAR=2005
DGENRE=Blues
TTITLE0=Legends
TTITLE1=Don't Forget Where You Came From
TTITLE2=It Keeps Getting Faster
TTITLE3=No Use Denying
TTITLE4=Not Coming Home
TTITLE5=2 Car Garage
TTITLE6=On My Mind 
TTITLE7=Blue Ridge
TTITLE8=The White Line
TTITLE9=Willow Creek
EXTD=
EXTT0=
EXTT1=
EXTT2=
EXTT3=
EXTT4=
EXTT5=
EXTT6=
EXTT7=
EXTT8=
EXTT9=
PLAYORDER=
